<svg xmlns="http://www.w3.org/2000/svg" xmlns:xlink="http://www.w3.org/1999/xlink" viewBox="0,0,256,256" width="24px" height="24px" fill-rule="nonzero"><g fill="#035ef9" fill-rule="nonzero" stroke="none" stroke-width="1" stroke-linecap="butt" stroke-linejoin="miter" stroke-miterlimit="10" stroke-dasharray="" stroke-dashoffset="0" font-family="none" font-weight="none" font-size="none" text-anchor="none" style="mix-blend-mode: normal"><g transform="scale(10.66667,10.66667)"><path d="M6.46484,2.99414c-0.19536,0.01232 -0.36557,0.1375 -0.43555,0.32031l-3.46094,5.93359c-0.09698,0.15456 -0.10207,0.34968 -0.01329,0.50909c0.08879,0.15941 0.25735,0.2578 0.43982,0.25673c0.18246,-0.00108 0.34986,-0.10146 0.43675,-0.26191l3.07812,-5.27734l1.32813,2.16992l-3.125,5.35547h-3.21289c-0.17703,0.00001 -0.34086,0.09361 -0.43076,0.24612c-0.0899,0.15251 -0.09246,0.34118 -0.00674,0.49607l5,9c0.0881,0.1591 0.25563,0.25783 0.4375,0.25781h10.84766c0.14036,0.05077 0.29607,0.03618 0.42456,-0.03978c0.12849,-0.07596 0.21633,-0.20535 0.23951,-0.3528l4.89063,-8.80273c0.1395,-0.18088 0.1387,-0.4333 -0.00195,-0.61328l-4.94922,-8.9082l-0.00195,-0.00586c-0.00376,-0.0066 -0.00767,-0.01311 -0.01172,-0.01953c-0.00434,-0.00793 -0.0089,-0.01575 -0.01367,-0.02344c-0.0044,-0.00662 -0.00896,-0.01313 -0.01367,-0.01953c-0.00913,-0.01349 -0.0189,-0.02653 -0.0293,-0.03906c-0.01108,-0.01296 -0.02281,-0.02535 -0.03516,-0.03711c-0.00636,-0.00603 -0.01287,-0.01189 -0.01953,-0.01758c-0.00576,-0.00469 -0.01162,-0.00925 -0.01758,-0.01367c-0.01317,-0.01045 -0.02686,-0.02023 -0.04102,-0.0293c-0.01389,-0.00917 -0.02823,-0.01765 -0.04297,-0.02539c-0.01528,-0.0073 -0.03093,-0.01382 -0.04687,-0.01953c-0.01536,-0.00598 -0.031,-0.01119 -0.04687,-0.01562c-0.01478,-0.0046 -0.02977,-0.00851 -0.04492,-0.01172c-0.0013,-0.00001 -0.0026,-0.00001 -0.00391,0c-0.0013,-0.00001 -0.0026,-0.00001 -0.00391,0c-0.04062,-0.00701 -0.08195,-0.00897 -0.12305,-0.00586h-10.88086c-0.03613,-0.00595 -0.07281,-0.00792 -0.10937,-0.00586zM7.39063,4h9.22461l-1.19922,2h-6.80273zM17.48438,4.50195l4.16602,7.49805h-2.3418l-1.86133,-3.72266c-0.07495,-0.16759 -0.23571,-0.28063 -0.41877,-0.29448c-0.18306,-0.01384 -0.35899,0.07374 -0.45829,0.22815c-0.0993,0.15441 -0.10601,0.35082 -0.01747,0.51164l1.63867,3.27734h-1.90234l-1.61133,-2.82227zM9.22266,7h5.59375l-0.90039,1.5h-3.77734zM8.42969,7.61328l0.92383,1.51172l-1.64258,2.875h-1.8418zM10.75,9.5h2.56641l-1.27148,2.11719zM9.94922,10.09961l1.16211,1.90039h-2.24805zM14.08789,10.16211l1.04883,1.83789h-2.15234zM2.34961,13h2.36328l3.3125,5.67578l0.00391,0.00977c0.08404,0.21704 0.30671,0.3474 0.53711,0.31445h6.82031l1.22266,2h-9.81445zM5.86914,13h1.86328l1.83398,2.75l-1.06055,1.76758zM8.93359,13h2.2832l-1.08203,1.80078zM12.89063,13h2.17578l-1.13672,1.70313zM16.26758,13h1.86133l-2.55859,4.38672l-1.06445,-1.74414zM19.28711,13h2.36328l-4.17187,7.50781l-1.31641,-2.15234zM12.05664,13.54688l2.7207,4.45313h-5.39258z"></path></g></g></svg>